PathFileType	4	(X/Y/Z)	Patient4_TMGait_0pt2_02_left_23.trc.trc
DataRate	CameraRate	NumFrames	NumMarkers	Units	OrigDataRate	OrigDataStartFrame	OrigNumFrames
48.109965635739	48.109965635739	4	33	mm	48.109965635739	18	       141
Frame#	Time	R.Midfoot.Superior			Sacral			L.Shoulder			Chest			R.Shoulder			Neck			R.ASIS			L.ASIS			R.Thigh.Superior			R.Thigh.Lateral			R.Thigh.Inferior			R.Patella			L.Thigh.Superior			L.Thigh.Lateral			L.Thigh.Inferior			L.Patella			L.Shank.Superior			L.Shank.Lateral			L.Shank.Inferior			R.Shank.Superior			R.Shank.Lateral			R.Shank.Inferior			R.Heel			R.Midfoot.Lateral			R.Toe			L.Heel			L.Midfoot.Lateral			L.Midfoot.Superior			L.Toe			L.Elbow			L.Wrist			R.Elbow			R.Wrist			
		X1	Y1	Z1	X2	Y2	Z2	X3	Y3	Z3	X4	Y4	Z4	X5	Y5	Z5	X6	Y6	Z6	X7	Y7	Z7	X8	Y8	Z8	X9	Y9	Z9	X10	Y10	Z10	X11	Y11	Z11	X12	Y12	Z12	X13	Y13	Z13	X14	Y14	Z14	X15	Y15	Z15	X16	Y16	Z16	X17	Y17	Z17	X18	Y18	Z18	X19	Y19	Z19	X20	Y20	Z20	X21	Y21	Z21	X22	Y22	Z22	X23	Y23	Z23	X24	Y24	Z24	X25	Y25	Z25	X26	Y26	Z26	X27	Y27	Z27	X28	Y28	Z28	X29	Y29	Z29	X30	Y30	Z30	X31	Y31	Z31	X32	Y32	Z32	X33	Y33	Z33	

18	52.183357142857	1140.193523842695	95.479752702830	593.782187856620	994.667085460522	1010.450353113295	624.384700525305	1126.389611634655	1424.889709244660	385.479973932353	1274.693871657801	1349.673310174501	502.508094765760	1263.133401784563	1433.860982364123	688.674810766093	1164.810577583024	1489.225353980807	533.411370650236	1242.581035969731	929.523671744846	667.212518455327	1152.522691772079	960.700946102139	407.917043818226	1256.059605450972	725.495597274729	619.359827695220	1183.244210213548	615.279485770896	689.739843911907	1232.346551503143	566.249428324972	588.714656072291	1227.309067919994	475.290335564625	589.910496047303	1237.863494249099	782.953028783797	424.834788340798	1178.902690275928	654.956073079919	350.180933411131	1287.249090223007	597.594069466616	398.987872758996	1309.302004721599	531.134916858764	392.155778619478	1295.087608687370	458.393913883584	375.822638145505	1227.207551382284	333.247718071841	314.490786934150	1315.945562259201	228.886045583442	356.470566701920	1184.511206264732	389.462398501102	598.525313691950	1112.357879677463	291.383796536791	669.177362118563	1123.231924895094	198.410070948940	593.442931333417	965.154198297115	44.784564814771	576.977265918220	1055.782119974196	36.950664799289	641.754618720298	1262.031630597589	42.309359592311	608.588473855185	1222.599841530740	66.376540179644	387.820044988948	1296.149813646448	53.547222924137	308.918250296277	1380.431795938946	116.584724538850	326.863779727189	1505.815919475928	61.699235506923	303.335589375700	937.155430344581	1122.857585187054	323.619685660348	887.277658730109	870.120934228777	371.339458090735	1489.753853723081	1185.636311576703	768.636398211072	1691.797783771342	1295.542986656796	659.670868526961	
19	52.204142857143	1136.044188043988	95.454637577186	593.888332383229	995.225415253344	1010.430866736003	622.060614135691	1126.565716622766	1424.851325787018	383.375004068579	1275.226495922025	1349.553351808687	499.949165330144	1263.772369083363	1433.552217415893	686.080951772735	1165.129918509985	1489.040498737139	531.298203326600	1242.854871904704	929.342279603337	665.838935607298	1153.640516057069	960.303521322495	406.270116570740	1255.147821405376	724.800837130008	618.871345988068	1181.089782803174	615.227447577860	689.298552610476	1230.313101417898	565.544021839029	588.803485539108	1224.518081677602	474.604749819183	590.204707578662	1238.353527757068	781.632662745351	423.381805523330	1177.686160246381	653.767457211873	349.221628652784	1285.794205060046	595.841397849260	397.471578736548	1306.462237989982	529.084830706872	391.574809066286	1292.691898837379	456.517085595897	375.096672292577	1224.956136956316	331.815640410242	313.213072296277	1312.774930091619	227.242308230540	355.906479489823	1181.447931660287	389.074373105646	598.615420344026	1108.777030618257	291.388022465321	669.272278098721	1119.472861791543	198.269540117159	593.585222465135	960.989762779388	44.847738406395	577.009110153341	1051.581487541743	36.924577366651	641.767552240195	1257.846144948244	42.202401675590	608.660052883088	1218.448419198843	65.398761469629	386.876012326955	1291.888273623999	52.928658343345	307.843666449276	1376.659679302896	114.979267131122	326.474337453703	1501.550084265244	59.418549531644	302.236941639295	936.234277335530	1123.833551976971	323.037944094293	888.282178038996	870.977539439351	374.056262794854	1493.205346685392	1188.017040372273	762.121727319860	1688.471194105342	1305.646012024455	649.637100154915	
20	52.224928571429	1131.909089539137	95.429529667502	593.969357010275	995.840080666234	1010.021552168452	619.372295530760	1127.032511198541	1424.340287847857	380.837795082201	1275.898475998565	1349.144376297097	497.249010426657	1264.212952711113	1433.006495160666	683.348718648152	1165.500609762208	1488.533275447341	528.822693187757	1243.216565457336	928.911578537303	664.356473347707	1155.058290523535	959.535626953122	404.460638295087	1254.769129602383	723.992894319667	618.087204842661	1179.675317531260	614.895180476843	688.445889508844	1229.120430895843	564.673895678422	588.453681184467	1222.683391703067	473.602889928257	590.042079228597	1239.058267816820	779.752514474036	421.847336428422	1176.751480835160	652.136990491632	348.179777734919	1284.404514676286	593.484684791374	396.174004590957	1303.732463189215	526.421354162501	391.083095561248	1290.134862125985	454.006708025228	374.463214232302	1222.110106816081	329.912491549454	312.108357923634	1308.651700161815	224.828390829249	355.588002130348	1179.129027646948	388.402569167897	598.316957999113	1105.758505680023	291.309124137690	669.093675619248	1116.019533371750	197.979747622677	593.558047027970	956.842179595030	44.950086591187	577.047319021646	1047.400740908189	36.912665196008	641.775948151896	1253.673759946362	42.069447733618	608.730369591181	1212.987421530608	63.472530298842	386.204977011106	1286.213687802304	51.719792871414	306.898179581494	1371.425760414428	112.868098588082	326.296910152098	1495.907804576822	56.905582715350	300.985587331142	936.598591118199	1123.565371376624	321.743670847257	890.722756776991	870.567432387240	375.751435334329	1495.730347202327	1189.599914691149	756.272860037217	1684.435181470899	1313.863393000374	640.457135029410	
21	52.245714285714	1127.797856571506	95.409877839105	594.028740284627	996.515280812141	1009.315418264959	616.355691826994	1127.780639912754	1423.442705686926	377.894350513597	1276.716348488136	1348.510655775741	494.406737568575	1264.517473538993	1432.301662337500	680.474799726730	1165.942040814684	1487.781000763323	525.996087931300	1243.677116359996	928.277135108049	662.699863292343	1156.699314727736	958.489496616651	402.460003132416	1254.869550265298	723.104089311529	616.944014711539	1178.952612544267	614.329300560998	687.167806540475	1228.677856528195	563.667019524030	587.636718849353	1221.698109759077	472.336502886824	589.407290786170	1239.846196986564	777.360451659000	420.146822160850	1175.975216904262	650.124972457172	346.991889696011	1282.966575793572	590.607516624497	395.051243598336	1301.042215506953	523.289213498458	390.625526578721	1287.411717625415	451.023252517692	373.882733282600	1218.833916115006	327.584822344073	311.141008483427	1303.892549337062	221.816750972490	355.485441612295	1177.473202752160	387.496756653446	597.629057552403	1103.258487971496	291.177549557598	668.644988779620	1112.844048945313	197.575653644694	593.361392094678	952.715336284391	45.112094760079	577.099998930747	1043.246012494898	36.923028809930	641.783435758824	1249.517492218057	41.908705202947	608.795975974604	1206.735751650889	60.717611003590	385.762782130370	1279.722758342510	49.993616639227	306.111866978012	1365.235421306329	110.437975139831	326.346219709629	1489.477834160848	54.435030448576	299.795991229688	938.169693990887	1122.192164421050	319.703536751725	894.423807280764	869.034481214145	376.258464310372	1497.467324536744	1190.505403888551	751.129814966634	1679.934496287090	1320.372034427042	632.167385767543	
